<svg width="166" height="24" viewBox="0 0 166 24" fill="none" xmlns="http://www.w3.org/2000/svg">
<path d="M14.7284 9.89603C10.7653 13.9979 13.8752 17.3522 21.6698 17.4697L20.927 18.8049C10.9792 18.6991 6.77392 14.8653 11.5245 10.1875C14.9941 6.765 22.9603 3.17559 30.0404 2.17188L29.4222 3.30253C23.5974 4.40027 17.6362 6.89193 14.7284 9.89603Z" fill="#1A1A1A"/>
<path d="M10.5208 10.1524C5.41293 15.1804 9.87912 19.3245 20.5627 19.4421L19.5096 21.3226C19.1265 21.3226 18.7527 21.3226 18.3696 21.3226C6.18864 21.3273 1.5344 15.9373 7.20881 10.0772C11.7455 5.37593 22.0177 1.45979 30.701 0.968506L30.212 1.86409C22.3962 2.8208 14.2489 6.47837 10.5208 10.1524Z" fill="#1A1A1A"/>
<path d="M2.85542 10.1312C8.27361 4.62368 20.4263 0.404308 31.2439 0L30.8608 0.648773C21.5123 1.1189 11.0873 5.0703 6.31554 10.0043C0.352004 16.1605 5.17783 21.9548 17.9864 21.9548C18.3907 21.9548 18.7644 21.9548 19.1617 21.9337L18.0428 23.9153C16.5948 24.0116 11.7807 24.2796 7.19232 22.8598C-0.390793 20.5092 -2.21018 15.2556 2.84837 10.1312" fill="#1A1A1A"/>
<path d="M23.7055 18.7487C23.0003 18.7816 22.234 18.8028 21.7122 18.8145L22.4173 17.4817C22.9274 17.4817 23.6514 17.4605 24.2062 17.4394L23.7055 18.7487Z" fill="#1A1A1A"/>
<path d="M21.9049 23.5957C21.0093 23.6826 19.9021 23.7767 19.1476 23.8425L20.1278 21.9126C20.786 21.8821 21.7732 21.828 22.5748 21.7739L21.9049 23.5957Z" fill="#1A1A1A"/>
<path d="M22.8076 21.2002C22.1706 21.2425 21.3714 21.2848 20.457 21.3177L21.3972 19.4631C22.1753 19.4631 22.8993 19.4208 23.4846 19.3879L22.8076 21.2002Z" fill="#1A1A1A"/>
<path d="M64.7075 23.3676H59.4539C57.4934 23.3676 56.163 22.8693 55.3802 21.9032C54.5975 20.9371 54.4141 19.4774 54.8184 17.5193L57.1832 6.37967C57.6791 4.04785 58.4572 2.49174 59.4539 1.67843C60.4505 0.865109 62.1594 0.503113 64.4583 0.503113H68.9998L68.4403 3.0888H65.1494C64.1222 3.0888 63.4076 3.30741 62.9093 3.74227C62.411 4.17714 62.1007 4.9552 61.8821 6.04589L61.4472 8.03686H66.9195L66.2683 11.0927H60.7914L59.5455 17.0021C59.2658 18.3726 59.2658 19.3363 59.609 19.9287C59.9522 20.521 60.6974 20.7984 61.8162 20.7984H65.2693L64.7075 23.3676Z" fill="#1A1A1A"/>
<path d="M80.412 23.3675H75.8094L79.6668 5.26768C79.7891 4.58129 79.7279 4.09236 79.4482 3.74212C79.1685 3.39188 78.609 3.21323 77.831 3.21323H77.0224L72.7301 23.3675H68.1299L72.9793 0.50061H80.6329C82.095 0.50061 83.1504 0.904918 83.7734 1.71353C84.3963 2.52215 84.6125 3.6434 84.3022 5.10548L80.412 23.3675Z" fill="#1A1A1A"/>
<path d="M100.409 3.0816H96.0553L91.763 23.3675H87.1605L91.4528 3.0816H87.1911L87.72 0.50061H100.937L100.409 3.0816Z" fill="#1A1A1A"/>
<path d="M110.956 23.3675H106.316L108.93 11.0761H105.291L102.679 23.3675H98.0768L101.652 6.5041C102.087 4.48256 102.964 2.92644 104.264 1.88041C105.564 0.834386 107.32 0.263184 109.435 0.263184C111.674 0.263184 113.198 0.760733 114.007 1.75583C114.816 2.78306 114.971 4.34152 114.536 6.51585L110.956 23.3675ZM109.588 8.0273L110.117 5.54034C110.333 4.60009 110.333 3.92311 110.117 3.5188C109.9 3.11449 109.524 2.92644 108.873 2.92644C108.156 2.92644 107.627 3.14505 107.287 3.5188C106.946 3.89255 106.664 4.57423 106.478 5.54034L105.949 8.0273H109.588Z" fill="#1A1A1A"/>
<path d="M129.422 17.0514C128.952 19.3221 128.054 21.0028 126.811 22.0911C125.567 23.1795 123.826 23.7365 121.71 23.7365C119.658 23.7365 118.229 23.1771 117.357 22.0276C116.485 20.8782 116.329 19.2563 116.797 17.049L120.311 0.50061H124.914L121.43 16.955C121.151 18.2008 121.089 19.0706 121.214 19.5994C121.339 20.1283 121.741 20.3775 122.425 20.3775C122.711 20.3884 122.996 20.3257 123.252 20.1952C123.507 20.0648 123.725 19.871 123.884 19.6324C124.258 19.1622 124.568 18.2643 124.848 16.9573L128.332 0.502961H132.934L129.422 17.0514Z" fill="#1A1A1A"/>
<path d="M164.844 11.9883C163.848 16.6238 162.635 19.7454 161.175 21.3509C160.473 22.1225 159.613 22.7349 158.655 23.1473C157.697 23.5596 156.661 23.7622 155.618 23.7414C153.378 23.7414 151.857 22.9305 151.046 21.3438C150.235 19.7571 150.341 16.6167 151.326 11.9813C152.32 7.28002 153.564 4.17014 154.995 2.57877C155.712 1.81839 156.58 1.21753 157.545 0.815354C158.509 0.413176 159.547 0.218698 160.592 0.244595C162.863 0.244595 164.416 0.949782 165.225 2.36016C166.034 3.77053 165.909 6.99559 164.854 11.9742L164.844 11.9883ZM160.084 11.9883C160.561 9.89535 160.914 7.77612 161.142 5.64163C161.299 4.17719 160.862 3.43204 159.898 3.43204C158.935 3.43204 158.22 4.17719 157.691 5.67219C157.029 7.74415 156.489 9.85315 156.074 11.9883C155.421 15.0441 155.047 17.2467 154.986 18.5818C154.925 19.917 155.359 20.5422 156.29 20.5422C157.221 20.5422 157.971 19.8371 158.469 18.3327C158.965 16.8729 159.494 14.755 160.084 11.986" fill="#1A1A1A"/>
<path d="M51.1491 23.3676H45.8625C43.935 23.3676 42.5716 22.8693 41.7889 21.9032C41.0061 20.9371 40.8251 19.4774 41.26 17.5193L43.6224 6.37967C44.1207 4.04785 44.8682 2.49174 45.8931 1.67843C46.9179 0.865109 48.5681 0.503113 50.8999 0.503113H55.4107L54.8489 3.0888H51.5581C50.5638 3.0888 49.8163 3.30741 49.3508 3.74227C48.8854 4.17714 48.5117 4.9552 48.293 6.04589L47.8582 8.03686L47.2353 11.0927L45.9612 17.0021C45.6815 18.3726 45.7121 19.3363 46.0223 19.9287C46.3326 20.521 47.1107 20.7984 48.2625 20.7984H51.6826L51.1491 23.3676Z" fill="#1A1A1A"/>
<path d="M144.318 6.62869C144.629 5.21832 144.662 4.26396 144.474 3.76798C144.286 3.272 143.79 3.02048 142.981 3.02048H141.768L140.275 10.0724H141.613C141.934 10.0822 142.253 10.017 142.545 9.88194C142.837 9.74688 143.093 9.54568 143.294 9.2943C143.696 8.79597 144.039 7.89568 144.318 6.61929V6.62869ZM143.044 14.5738C143.169 13.9838 143.075 13.5466 142.826 13.2669C142.577 12.9871 142.172 12.7967 141.613 12.7967H139.685L137.445 23.3746H132.843L137.694 0.50061H144.723C146.65 0.50061 147.957 0.935476 148.641 1.83812C149.325 2.74076 149.511 4.0477 149.111 5.85063C148.832 7.22105 148.336 8.33995 147.588 9.17912C146.851 10.0339 145.878 10.6514 144.791 10.9538C145.846 11.0784 146.624 11.4827 147.09 12.1668C147.555 12.8508 147.652 13.6923 147.433 14.6866L145.567 23.3675H141.178L143.044 14.5738Z" fill="#1A1A1A"/>
</svg>
