<svg width="140" height="140" viewBox="0 0 140 140" fill="none" xmlns="http://www.w3.org/2000/svg">
<g clip-path="url(#clip0_1_507)">
<path d="M66.5071 63.7601L71.2759 97.0502H80.5818L85.3505 63.7601H66.5071Z" fill="#E30000"/>
<path d="M98.0856 63.7601L93.3169 97.0502H105.634L113.121 63.7601H98.0856Z" fill="#E30000"/>
<path d="M53.7714 63.7601H38.7362L45.4598 97.0502H58.5402L53.7714 63.7601Z" fill="#E30000"/>
<path d="M128.375 50.8974C127.855 50.2847 127.093 49.9314 126.289 49.9314H26.1457L22.76 33.1683C22.5024 31.8927 21.3813 30.9753 20.0797 30.9753H2.23438C0.724453 30.9753 -0.5 32.1995 -0.5 33.7097C-0.5 35.2199 0.724453 36.4441 2.23438 36.4441H17.8422L34.4612 118.726C31.8985 120.95 30.2748 124.231 30.2748 127.884C30.2748 134.565 35.7037 140 42.3766 140C49.0496 140 54.4784 134.565 54.4784 127.884C54.4784 125.431 53.7467 123.146 52.4903 121.237H90.4059C89.1495 123.146 88.4178 125.431 88.4178 127.884C88.4178 134.565 93.8466 140 100.52 140C107.193 140 112.621 134.565 112.621 127.884C112.621 125.394 111.867 123.077 110.575 121.15C111.752 120.844 112.621 119.775 112.621 118.502C112.621 116.992 111.397 115.768 109.887 115.768H39.4429L38.4553 110.879H107.798C114.526 110.879 120.208 106.061 121.308 99.4241L128.986 53.1128C129.118 52.3204 128.894 51.5102 128.375 50.8974ZM49.01 127.884C49.01 131.549 46.0344 134.531 42.3769 134.531C38.7194 134.531 35.7439 131.549 35.7439 127.884C35.7439 124.219 38.7194 121.237 42.3769 121.237C46.0344 121.237 49.01 124.219 49.01 127.884ZM100.52 134.531C96.8623 134.531 93.8868 131.549 93.8868 127.884C93.8868 124.219 96.8623 121.237 100.52 121.237C104.177 121.237 107.153 124.219 107.153 127.884C107.153 131.549 104.177 134.531 100.52 134.531ZM115.913 98.5297C115.252 102.516 111.84 105.41 107.798 105.41H37.3509L27.2501 55.4001H123.064L115.913 98.5297Z" fill="#8C0000"/>
<path d="M75.9289 41.8083C87.4554 41.8083 96.8332 32.4308 96.8332 20.904C96.8332 9.37726 87.4554 0 75.9289 0C64.4024 0 55.0248 9.37754 55.0248 20.904C55.0248 32.4305 64.4024 41.8083 75.9289 41.8083ZM75.9289 5.46875C84.4402 5.46875 91.3644 12.393 91.3644 20.904C91.3644 29.415 84.4402 36.3396 75.9289 36.3396C67.4178 36.3396 60.4936 29.4153 60.4936 20.904C60.4936 12.393 67.4178 5.46875 75.9289 5.46875Z" fill="#8C0000"/>
<path d="M69.108 27.7247C69.642 28.2588 70.3417 28.5256 71.0414 28.5256C71.7412 28.5256 72.4409 28.2585 72.9749 27.7247L75.9286 24.7711L78.8823 27.7247C79.4163 28.2588 80.116 28.5256 80.8157 28.5256C81.5155 28.5256 82.2152 28.2585 82.7492 27.7247C83.817 26.657 83.817 24.9256 82.7492 23.8578L79.7958 20.9041L82.7495 17.9504C83.8173 16.8827 83.8173 15.1513 82.7495 14.0835C81.6817 13.0157 79.9508 13.0157 78.8823 14.0835L75.9286 17.0372L72.9749 14.0835C71.9069 13.0157 70.176 13.0157 69.108 14.0835C68.0402 15.1513 68.0402 16.8827 69.108 17.9504L72.0616 20.9041L69.108 23.8578C68.0399 24.9256 68.0399 26.6567 69.108 27.7247Z" fill="#8C0000"/>
</g>
<defs>
<clipPath id="clip0_1_507">
<rect width="140" height="140" fill="white"/>
</clipPath>
</defs>
</svg>
