<svg width="28" height="28" viewBox="0 0 28 28" fill="none" xmlns="http://www.w3.org/2000/svg">
<path fill-rule="evenodd" clip-rule="evenodd" d="M0.661713 2.00002C0.661713 2.73335 1.26171 3.33335 1.99505 3.33335H3.32838L8.12838 13.4534L6.32838 16.7067C5.35505 18.4934 6.63505 20.6667 8.66171 20.6667H23.3284C24.0617 20.6667 24.6617 20.0667 24.6617 19.3334C24.6617 18.6 24.0617 18 23.3284 18H8.66171L10.1284 15.3334H20.0617C21.0617 15.3334 21.9417 14.7867 22.395 13.96L27.1684 5.30669C27.6617 4.42669 27.0217 3.33335 26.0084 3.33335H6.27505L5.38171 1.42669C5.16838 0.96002 4.68838 0.666687 4.18171 0.666687H1.99505C1.26171 0.666687 0.661713 1.26669 0.661713 2.00002ZM8.66172 22C7.19505 22 6.00838 23.2 6.00838 24.6667C6.00838 26.1334 7.19505 27.3334 8.66172 27.3334C10.1284 27.3334 11.3284 26.1334 11.3284 24.6667C11.3284 23.2 10.1284 22 8.66172 22ZM19.3417 24.6667C19.3417 23.2 20.5284 22 21.9951 22C23.4617 22 24.6617 23.2 24.6617 24.6667C24.6617 26.1334 23.4617 27.3334 21.9951 27.3334C20.5284 27.3334 19.3417 26.1334 19.3417 24.6667Z" fill="white"/>
</svg>
