<svg width="34" height="39" viewBox="0 0 34 39" fill="none" xmlns="http://www.w3.org/2000/svg">
<path fill-rule="evenodd" clip-rule="evenodd" d="M2.66171 11C2.66171 11.7333 3.26171 12.3333 3.99505 12.3333H5.32838L10.1284 22.4533L8.32838 25.7067C7.35505 27.4933 8.63505 29.6667 10.6617 29.6667H25.3284C26.0617 29.6667 26.6617 29.0667 26.6617 28.3333C26.6617 27.6 26.0617 27 25.3284 27H10.6617L12.1284 24.3333H22.0617C23.0617 24.3333 23.9417 23.7867 24.395 22.96L29.1684 14.3067C29.6617 13.4267 29.0217 12.3333 28.0084 12.3333H8.27505L7.38171 10.4267C7.16838 9.96 6.68838 9.66667 6.18171 9.66667H3.99505C3.26171 9.66667 2.66171 10.2667 2.66171 11ZM10.6617 31C9.19505 31 8.00838 32.2 8.00838 33.6667C8.00838 35.1333 9.19505 36.3333 10.6617 36.3333C12.1284 36.3333 13.3284 35.1333 13.3284 33.6667C13.3284 32.2 12.1284 31 10.6617 31ZM21.3417 33.6667C21.3417 32.2 22.5284 31 23.995 31C25.4617 31 26.6617 32.2 26.6617 33.6667C26.6617 35.1333 25.4617 36.3333 23.995 36.3333C22.5284 36.3333 21.3417 35.1333 21.3417 33.6667Z" fill="white"/>
<circle cx="25" cy="9" r="8" fill="white" stroke="#E30000" stroke-width="2"/>
</svg>
