<svg width="18" height="19" viewBox="0 0 18 19" fill="none" xmlns="http://www.w3.org/2000/svg">
<path id="search - material" d="M6.528 11.616C7.344 11.616 8.096 11.416 8.784 11.016C9.472 10.6 10.016 10.048 10.416 9.36C10.816 8.672 11.016 7.92 11.016 7.104C11.016 6.288 10.816 5.536 10.416 4.848C10.016 4.16 9.472 3.616 8.784 3.216C8.096 2.816 7.344 2.616 6.528 2.616C5.712 2.616 4.96 2.816 4.272 3.216C3.584 3.616 3.032 4.16 2.616 4.848C2.216 5.536 2.016 6.288 2.016 7.104C2.016 7.92 2.216 8.672 2.616 9.36C3.032 10.048 3.584 10.6 4.272 11.016C4.96 11.416 5.712 11.616 6.528 11.616ZM12.528 11.616L17.496 16.584L15.984 18.096L11.016 13.104V12.312L10.728 12.048C10.168 12.544 9.52 12.928 8.784 13.2C8.064 13.456 7.312 13.584 6.528 13.584C5.344 13.584 4.248 13.296 3.24 12.72C2.248 12.144 1.464 11.368 0.888 10.392C0.296 9.384 0 8.288 0 7.104C0 5.92 0.288 4.832 0.864 3.84C1.456 2.832 2.248 2.04 3.24 1.464C4.248 0.888 5.344 0.599999 6.528 0.599999C7.712 0.599999 8.808 0.895999 9.816 1.488C10.792 2.064 11.56 2.848 12.12 3.84C12.696 4.832 12.984 5.92 12.984 7.104C12.984 7.904 12.848 8.672 12.576 9.408C12.32 10.128 11.944 10.768 11.448 11.328L11.712 11.616H12.528Z" fill="#E30000"/>
</svg>
