<svg width="14" height="13" viewBox="0 0 14 13" fill="none" xmlns="http://www.w3.org/2000/svg">
<path fill-rule="evenodd" clip-rule="evenodd" d="M8.99884 3.79313L12.8305 4.10813C13.5272 4.16063 13.8043 4.98563 13.2738 5.42063L10.3684 7.80563L11.2393 11.3531C11.3976 11.9981 10.6613 12.5081 10.0597 12.1631L6.77426 10.2806L3.48884 12.1556C2.88717 12.5006 2.15092 11.9906 2.30926 11.3456L3.18009 7.80563L0.274675 5.42063C-0.255742 4.98563 0.0292579 4.16063 0.725925 4.10813L4.54967 3.80063L6.04592 0.455625C6.31509 -0.151875 7.23342 -0.151875 7.50259 0.455625L8.99884 3.79313ZM6.77426 1.90313V8.87813L9.75884 10.5881L8.96718 7.37813L11.5955 5.21813L8.12801 4.93313L6.77426 1.90313Z" fill="#E30000"/>
<path d="M6.82125 8.975V2L5.4675 5.03L2 5.315L4.62833 7.475L3.83667 10.685L6.82125 8.975Z" fill="#E5E5E5"/>
</svg>
